# xmcd
#
# Track frame offsets:
#	151
#	13255
#	29952
#	46654
#	61029
#	81785
#	105759
#	124711
#	147185
#	168683
#
# Disc length: 2582 seconds
#
# Revision: 1
# Processed by: cddbd v1.5.2PL0 Copyright (c) Steve Scherf et al.
# Submitted via: audiograbber 1.83.01
#
DISCID=7d0a140a
DTITLE=Jimi Jon - The Smooth Gentle Sound Of Jimi Jon
DYEAR=1900
DGENRE=
TTITLE0=Joanna
TTITLE1=Ann Marie
TTITLE2=Feathers
TTITLE3=Tenager In Love
TTITLE4=You Can Take My Love 
TTITLE5=Forever Means Always
TTITLE6=How Do I Love You 
TTITLE7=It´s Happening Again 
TTITLE8=When Springtime Comes
TTITLE9=Growing Old
EXTD=
EXTT0=
EXTT1=
EXTT2=
EXTT3=
EXTT4=
EXTT5=
EXTT6=
EXTT7=
EXTT8=
EXTT9=
PLAYORDER=
